<?xml version="1.0" encoding="UTF-8" standalone="no"?>
<!-- Generator: Adobe Illustrator 19.0.0, SVG Export Plug-In . SVG Version: 6.00 Build 0)  -->

<svg
   xmlns:dc="http://purl.org/dc/elements/1.1/"
   xmlns:cc="http://creativecommons.org/ns#"
   xmlns:rdf="http://www.w3.org/1999/02/22-rdf-syntax-ns#"
   xmlns:svg="http://www.w3.org/2000/svg"
   xmlns="http://www.w3.org/2000/svg"
   xmlns:sodipodi="http://sodipodi.sourceforge.net/DTD/sodipodi-0.dtd"
   xmlns:inkscape="http://www.inkscape.org/namespaces/inkscape"
   version="1.1"
   id="Capa_1"
   x="0px"
   y="0px"
   viewBox="0 0 512 512"
   style="enable-background:new 0 0 512 512;"
   xml:space="preserve"
   sodipodi:docname="log.svg"
   inkscape:version="0.92.1 r15371"><metadata
     id="metadata55"><rdf:RDF><cc:Work
         rdf:about=""><dc:format>image/svg+xml</dc:format><dc:type
           rdf:resource="http://purl.org/dc/dcmitype/StillImage" /><dc:title></dc:title></cc:Work></rdf:RDF></metadata><defs
     id="defs53" /><sodipodi:namedview
     pagecolor="#ffffff"
     bordercolor="#666666"
     borderopacity="1"
     objecttolerance="10"
     gridtolerance="10"
     guidetolerance="10"
     inkscape:pageopacity="0"
     inkscape:pageshadow="2"
     inkscape:window-width="1920"
     inkscape:window-height="1002"
     id="namedview51"
     showgrid="false"
     inkscape:zoom="0.4609375"
     inkscape:cx="260.33898"
     inkscape:cy="256"
     inkscape:window-x="0"
     inkscape:window-y="0"
     inkscape:window-maximized="1"
     inkscape:current-layer="Capa_1"><inkscape:grid
       type="xygrid"
       id="grid4532" /></sodipodi:namedview><g
     id="g6"
     transform="rotate(-90,256,256)"><g
       id="g4"><path
         d="M 432,0 H 80 C 35.888,0 0,35.888 0,80 v 40 c 0,11.046 8.954,20 20,20 11.046,0 20,-8.954 20,-20 V 80 C 40,57.944 57.944,40 80,40 h 352 c 22.056,0 40,17.944 40,40 v 352 c 0,22.056 -17.944,40 -40,40 H 80 C 57.944,472 40,454.056 40,432 V 392 C 40,380.954 31.046,372 20,372 8.954,372 0,380.954 0,392 v 40 c 0,44.112 35.888,80 80,80 h 352 c 44.112,0 80,-35.888 80,-80 V 80 C 512,35.888 476.112,0 432,0 Z"
         id="path2"
         inkscape:connector-curvature="0" /></g></g><g
     id="g12"
     transform="rotate(-90,212.13369,226.12692)"><g
       id="g10"><path
         d="m 335.919,213.567 -74.784,-74.716 c -7.814,-7.807 -20.477,-7.801 -28.284,0.013 -7.807,7.814 -7.801,20.477 0.013,28.284 l 74.778,74.709 c 7.798,7.798 7.798,20.486 0,28.284 -0.029,0.029 -0.058,0.059 -0.087,0.088 l -74.784,75.716 c -7.762,7.859 -7.684,20.522 0.175,28.284 3.897,3.85 8.976,5.771 14.053,5.771 5.16,0 10.318,-1.985 14.23,-5.946 l 74.746,-75.677 c 23.346,-23.398 23.329,-61.425 -0.056,-84.81 z"
         id="path8"
         inkscape:connector-curvature="0" /></g></g><g
     id="g18"
     transform="rotate(90,155.78813,346.03391)"><g
       id="g16"><path
         d="M 233,236 H 20 c -11.046,0 -20,8.954 -20,20 0,11.046 8.954,20 20,20 h 213 c 11.046,0 20,-8.954 20,-20 0,-11.046 -8.954,-20 -20,-20 z"
         id="path14"
         inkscape:connector-curvature="0" /></g></g><g
     id="g20" /><g
     id="g22" /><g
     id="g24" /><g
     id="g26" /><g
     id="g28" /><g
     id="g30" /><g
     id="g32" /><g
     id="g34" /><g
     id="g36" /><g
     id="g38" /><g
     id="g40" /><g
     id="g42" /><g
     id="g44" /><g
     id="g46" /><g
     id="g48" /></svg>