<?xml version="1.0" encoding="UTF-8" standalone="no"?>
<svg
   xmlns:dc="http://purl.org/dc/elements/1.1/"
   xmlns:cc="http://creativecommons.org/ns#"
   xmlns:rdf="http://www.w3.org/1999/02/22-rdf-syntax-ns#"
   xmlns:svg="http://www.w3.org/2000/svg"
   xmlns="http://www.w3.org/2000/svg"
   xmlns:xlink="http://www.w3.org/1999/xlink"
   xmlns:sodipodi="http://sodipodi.sourceforge.net/DTD/sodipodi-0.dtd"
   xmlns:inkscape="http://www.inkscape.org/namespaces/inkscape"
   height="64"
   width="64"
   version="1.0"
   id="svg15"
   sodipodi:docname="settings.svg"
   inkscape:export-filename="/mnt/partage/Mouloud/Icon_tab_client_opa100/settings.png"
   inkscape:export-xdpi="96"
   inkscape:export-ydpi="96"
   inkscape:version="0.92.1 r15371">
  <metadata
     id="metadata19">
    <rdf:RDF>
      <cc:Work
         rdf:about="">
        <dc:format>image/svg+xml</dc:format>
        <dc:type
           rdf:resource="http://purl.org/dc/dcmitype/StillImage" />
        <dc:title></dc:title>
      </cc:Work>
    </rdf:RDF>
  </metadata>
  <sodipodi:namedview
     pagecolor="#ffffff"
     bordercolor="#666666"
     borderopacity="1"
     objecttolerance="10"
     gridtolerance="10"
     guidetolerance="10"
     inkscape:pageopacity="0"
     inkscape:pageshadow="2"
     inkscape:window-width="1920"
     inkscape:window-height="1002"
     id="namedview17"
     showgrid="false"
     inkscape:pagecheckerboard="true"
     inkscape:zoom="10.429825"
     inkscape:cx="28.419587"
     inkscape:cy="36.086512"
     inkscape:window-x="0"
     inkscape:window-y="0"
     inkscape:window-maximized="1"
     inkscape:current-layer="g13" />
  <defs
     id="defs9">
    <linearGradient
       id="d"
       x1="7.2236"
       xlink:href="#a"
       gradientUnits="userSpaceOnUse"
       x2="7.2236"
       y1=".019012"
       y2="15.035" />
    <linearGradient
       id="a">
      <stop
         offset="0"
         id="stop3" />
      <stop
         stop-color="#363636"
         offset="1"
         id="stop5" />
    </linearGradient>
    <linearGradient
       id="e"
       x1="7.493"
       xlink:href="#a"
       gradientUnits="userSpaceOnUse"
       x2="7.493"
       y1=".0035527"
       y2="14.998" />
  </defs>
  <g
     inkscape:groupmode="layer"
     id="layer2"
     inkscape:label="Layer 1"
     style="display:inline;opacity:1">
    <g
       transform="matrix(3.7332,0,0,3.7333,2.1334,3.7931)"
       id="g13"
       style="opacity:1;fill:#ffffff">
      <path
         d="M 6.9375,0.056 C 6.6891,0.056 6.5,0.24508 6.5,0.4935 v 1.25 C 5.9461,1.8857 5.4488,2.1154 4.9688,2.3998 L 4.0625,1.4935 c -0.17566,-0.17566 -0.44934,-0.17566 -0.625,0 l -1.5,1.5 c -0.17566,0.17566 -0.17566,0.44934 0,0.625 L 2.8438,4.5248 C 2.5594,5.0048 2.3297,5.5021 2.1875,6.056 h -1.25 C 0.68908,6.056 0.5,6.2451 0.5,6.4935 v 2.125 c 1e-8,0.24842 0.18908,0.4375 0.4375,0.4375 h 1.25 c 0.1422,0.5539 0.37188,1.0512 0.65625,1.5312 l -0.9063,0.907 c -0.17566,0.17566 -0.17566,0.44934 0,0.625 l 1.5,1.5 c 0.17566,0.17566 0.44934,0.17566 0.625,0 l 0.9063,-0.907 c 0.48,0.285 0.9773,0.514 1.5312,0.656 v 1.25 c 1e-7,0.24842 0.18908,0.4375 0.4375,0.4375 h 2.125 c 0.2484,0 0.4375,-0.189 0.4375,-0.438 v -1.25 c 0.5539,-0.1422 1.0512,-0.37188 1.5312,-0.65625 l 0.90625,0.90625 c 0.17566,0.17566 0.44934,0.17566 0.625,0 l 1.5,-1.5 c 0.17566,-0.17566 0.17566,-0.44934 0,-0.625 l -0.906,-0.906 c 0.285,-0.48 0.514,-0.9771 0.656,-1.531 h 1.25 c 0.249,0 0.438,-0.1891 0.438,-0.4375 v -2.125 c 0,-0.2484 -0.189,-0.4375 -0.438,-0.4375 h -1.25 c -0.142,-0.5539 -0.371,-1.0512 -0.656,-1.5312 l 0.906,-0.9063 c 0.17566,-0.17566 0.17566,-0.44934 0,-0.625 l -1.5,-1.5 c -0.17566,-0.17566 -0.44934,-0.17566 -0.625,0 l -0.906,0.9063 c -0.48,-0.2844 -0.977,-0.5141 -1.531,-0.6563 v -1.25 C 9.5008,0.24448 9.3117,0.0554 9.0633,0.0554 Z M 8,4.2133 c 1.8451,0 3.3427,1.4975 3.3427,3.3427 0,1.8451 -1.4975,3.3427 -3.3427,3.3427 -1.8451,0 -3.3427,-1.4979 -3.3427,-3.343 C 4.6573,5.7106 6.1549,4.213 8,4.213 Z"
         display="block"
         id="path11"
         style="display:block;opacity:1;fill:#ffffff"
         inkscape:connector-curvature="0" />
    </g>
  </g>
</svg>
